<svg width="799" height="206" viewBox="0 0 799 206" fill="none" xmlns="http://www.w3.org/2000/svg">
<g clip-path="url(#clip0_175_409)">
<path fill-rule="evenodd" clip-rule="evenodd" d="M172.333 31.9355H56.2881V90.1198H113.388C115.422 90.1198 117.072 91.7701 117.072 93.8043V150.116H176.018V35.6268C176.02 34.6484 175.632 33.7095 174.941 33.0171C174.25 32.3247 173.312 31.9355 172.333 31.9355Z" fill="#8E75FF"/>
<path opacity="0.405" fill-rule="evenodd" clip-rule="evenodd" d="M56.2815 31.9355V90.1198H1.84241C1.09434 90.1185 0.421059 89.6657 0.137643 88.9734C-0.145773 88.2811 0.016737 87.4862 0.549123 86.9607L56.2815 31.9355ZM120.211 205.202C119.681 205.722 118.891 205.874 118.206 205.588C117.52 205.301 117.074 204.631 117.073 203.888V150.116H176.018L120.211 205.195V205.202Z" fill="#8E75FF"/>
<path opacity="0.405" fill-rule="evenodd" clip-rule="evenodd" d="M56.2812 90.1199H115.233C116.244 90.1199 117.072 90.9416 117.072 91.9588V150.116H59.9725C57.9376 150.116 56.288 148.466 56.288 146.432V90.1199H56.2812Z" fill="#8E75FF"/>
<path fill-rule="evenodd" clip-rule="evenodd" d="M770.423 28.2645C773.717 31.5247 777.603 33.148 782.089 33.148C786.717 33.148 790.678 31.5247 793.971 28.2645C797.265 25.0044 798.909 21.165 798.909 16.726C798.909 12.2939 797.265 8.41401 793.971 5.0865C790.877 1.84287 786.572 0.0343472 782.089 0.0952395C777.603 0.0952395 773.717 1.75899 770.423 5.07976C767.129 8.41401 765.485 12.2871 765.485 16.7328C765.485 21.165 767.129 25.0044 770.423 28.2645ZM413.019 70.7812C413.019 71.118 412.736 71.4009 412.392 71.4009H389.255V114.645C389.255 118.249 390.171 120.882 391.99 122.546C393.808 124.21 396.476 125.139 399.978 125.348C403.185 125.544 407.091 125.53 411.705 125.315L412.359 125.281C412.529 125.272 412.695 125.333 412.819 125.45C412.943 125.567 413.012 125.73 413.012 125.901V149.011C413.014 149.329 412.776 149.596 412.46 149.631L412.036 149.678C393.916 151.584 381.098 149.813 373.594 144.37C365.956 138.827 362.143 128.918 362.143 114.645V71.4009H344.468C344.126 71.4009 343.849 71.1234 343.849 70.7812V46.2425C343.849 45.9057 344.125 45.6228 344.468 45.6228H362.136V28.4666C362.136 27.9682 362.433 27.5236 362.884 27.3215L388.386 16.2276C388.578 16.1405 388.801 16.157 388.978 16.2715C389.155 16.3859 389.262 16.5825 389.262 16.7934V45.6228H412.392C412.729 45.6228 413.012 45.899 413.012 46.2425V70.7812H413.019ZM462.191 63.5065C464.71 56.8515 468.879 51.8602 474.692 48.5327C480.427 45.2676 486.913 43.5498 493.512 43.5482C493.856 43.5482 494.139 43.8243 494.139 44.1746V72.3641C494.139 72.6494 494.017 72.9211 493.806 73.1123C493.594 73.3035 493.311 73.3963 493.027 73.3678C485.207 72.6672 478.182 74.3714 471.958 78.4735C465.444 82.7643 462.191 89.9043 462.191 99.8868V148.951C462.191 149.116 462.124 149.275 462.007 149.391C461.889 149.508 461.73 149.572 461.564 149.57H435.685C435.343 149.57 435.065 149.293 435.065 148.951V46.2358C435.065 45.899 435.342 45.6161 435.685 45.6161H461.564C461.901 45.6161 462.184 45.8922 462.184 46.2358V63.493L462.191 63.5065ZM590.414 45.6228C590.249 45.621 590.089 45.6855 589.972 45.8019C589.854 45.9183 589.788 46.077 589.788 46.2425V57.8955C581.664 47.7716 570.24 42.7129 555.522 42.7129C541.512 42.7129 529.488 48.014 519.472 58.6163C509.449 69.2185 504.438 82.2119 504.438 97.5966C504.438 112.981 509.449 125.975 519.472 136.577C529.488 147.179 541.512 152.48 555.522 152.48C570.24 152.48 581.658 147.422 589.788 137.304V148.951C589.788 149.287 590.071 149.57 590.414 149.57H616.287C616.63 149.57 616.913 149.294 616.913 148.951V46.2358C616.913 46.0702 616.847 45.9116 616.729 45.7952C616.611 45.6788 616.452 45.6143 616.287 45.6161H590.414V45.6228ZM539.761 118.801C545.223 124.21 552.155 126.911 560.574 126.911C568.981 126.911 575.952 124.17 581.489 118.693C587.026 113.224 589.788 106.192 589.788 97.5966C589.788 89.0017 587.026 81.9694 581.489 76.4932C575.952 71.0237 568.981 68.2822 560.568 68.2822C552.161 68.2822 545.223 71.0237 539.754 76.4999C534.298 81.9694 531.556 89.0017 531.556 97.5966C531.556 106.192 534.291 113.257 539.761 118.801ZM737.458 58.6163C727.435 48.014 715.344 42.7129 701.192 42.7129C686.474 42.7129 675.124 47.7716 667.135 57.8888V46.2425C667.135 45.9003 666.858 45.6228 666.516 45.6228H640.637C640.294 45.6228 640.017 45.9003 640.017 46.2425V190.524C640.017 190.868 640.293 191.151 640.637 191.151H666.516C666.853 191.151 667.135 190.868 667.135 190.524V137.304C675.124 147.422 686.474 152.48 701.192 152.48C715.344 152.48 727.435 147.179 737.458 136.577C747.474 125.975 752.485 112.981 752.485 97.5966C752.485 82.2119 747.474 69.2185 737.458 58.6163ZM675.333 118.801C680.802 124.21 687.734 126.911 696.147 126.911C704.553 126.911 711.525 124.17 717.062 118.693C722.598 113.224 725.367 106.192 725.367 97.5966C725.367 89.0017 722.598 81.9694 717.062 76.4932C711.525 71.0237 704.553 68.2822 696.147 68.2822C687.734 68.2822 680.802 71.0237 675.333 76.4999C669.87 81.9694 667.135 89.0017 667.135 97.5966C667.135 106.192 669.87 113.257 675.333 118.801ZM769.258 149.57C768.915 149.57 768.638 149.293 768.638 148.951V46.2358C768.638 45.899 768.914 45.6161 769.258 45.6161H795.137C795.48 45.6161 795.756 45.8922 795.756 46.2358V148.957C795.756 149.3 795.479 149.577 795.137 149.577H769.258V149.57ZM285.725 81.9021C282.007 80.171 280.154 77.9145 280.154 75.146C280.154 72.5123 281.306 70.4309 283.623 68.9086C285.934 67.3863 288.844 66.6184 292.346 66.6184C299.062 66.6184 304.134 69.2117 307.569 74.3916C307.806 74.7545 308.268 74.8963 308.667 74.7284L331.556 64.7122C331.716 64.6404 331.838 64.5042 331.892 64.3373C331.946 64.1703 331.926 63.9884 331.839 63.8365C331.575 63.3974 331.305 62.9617 331.03 62.5298C327.117 56.4338 322.045 51.8872 315.679 48.4317C308.674 44.6192 300.894 42.7129 292.346 42.7129C280.99 42.7129 271.499 45.6565 263.854 51.5504C256.222 57.4375 252.403 65.5138 252.403 75.7657C252.403 82.5622 254.262 88.2068 257.973 92.7131C261.56 97.1248 266.233 100.528 271.533 102.588C276.854 104.662 282.182 106.4 287.51 107.781C292.831 109.169 297.358 110.731 301.069 112.463C304.781 114.194 306.64 116.443 306.64 119.219C306.64 125.18 301.803 128.157 292.137 128.157C282.93 128.157 276.551 124.789 273.001 118.067C272.705 117.479 272.003 117.222 271.398 117.481L248.577 127.484C248.423 127.551 248.303 127.678 248.245 127.835C248.186 127.993 248.194 128.167 248.267 128.319L248.523 128.837C256.498 144.599 271.034 152.48 292.137 152.48C304.188 152.48 314.244 149.604 322.301 143.858C330.363 138.099 334.391 129.888 334.391 119.219C334.391 112.146 332.532 106.259 328.821 101.544C325.322 96.9938 320.627 93.5052 315.262 91.467C310.039 89.4892 304.704 87.8225 299.284 86.4757C293.956 85.1555 289.436 83.6332 285.725 81.8953V81.9021Z" fill="#2F2E8B"/>
</g>
<defs>
<clipPath id="clip0_175_409">
<rect width="799" height="206" fill="white"/>
</clipPath>
</defs>
</svg>
